<?xml version="1.0" encoding="utf-8"?>
<!-- Svg Vector Icons : http://www.onlinewebfonts.com/icon -->
<!DOCTYPE svg PUBLIC "-//W3C//DTD SVG 1.1//EN" "http://www.w3.org/Graphics/SVG/1.1/DTD/svg11.dtd">
<svg version="1.1" xmlns="http://www.w3.org/2000/svg" xmlns:xlink="http://www.w3.org/1999/xlink" x="0px" y="0px" viewBox="0 0 256 256" enable-background="new 0 0 256 256" xml:space="preserve">
<metadata> Svg Vector Icons : http://www.onlinewebfonts.com/icon </metadata>
<g><g><path fill="#000000" d="M235.5,235.2c0-0.3-0.1-0.7-0.1-1c0-0.7-0.1-1.5-0.3-2.2c-4.9-38.2-30.1-70.2-64.5-84.9c19.9-13.5,32.9-36.2,32.9-62c0-41.5-33.9-75.1-75.6-75.1c-41.8,0-75.6,33.6-75.6,75.1c0,25.7,13.1,48.5,32.9,62c-34,14.6-59,46-64.3,83.7c-0.4,1.1-0.6,2.3-0.6,3.5l0.1,0.8c0,0,0,0,0,0l0,0l0,0.1c0,5.9,4.8,10.7,10.8,10.7c5.9,0,10.8-4.8,10.8-10.7l0-0.1h0.2c5-40.9,39-72.9,81-75.1c1.5,0.1,3.1,0.1,4.7,0.1c1.6,0,3.1,0,4.7-0.1c42,2.2,76,34.2,81,75.1h0.2l0,0.1c0,5.9,4.8,10.7,10.8,10.7s10.8-4.8,10.8-10.7V235.2L235.5,235.2z M128,138.7c-29.8,0-54-24-54-53.6c0-29.6,24.2-53.6,54-53.6c29.8,0,54,24,54,53.6C182,114.7,157.8,138.7,128,138.7z"/></g></g>
</svg>